# xmcd CD database file
#
# Track frame offsets:
#	150
#	14848
#	28390
#	43833
#	65550
#	79598
#	91913
#	106728
#	121628
#	136538
#	150160
#
# Disc length: 2157 seconds
#
# Revision: 2
# Processed by: cddbd v1.4PL0 Copyright (c) Steve Scherf et al.
# Submitted via: CDex 1.50
#
DISCID=7e086b0b
DTITLE=Diamond Rio - Close To The Edge
DYEAR=1992
DGENRE=Country
TTITLE0=Oh Me, Oh My, Sweet Baby
TTITLE1=In A Week Or Two
TTITLE2=It Does Get Better Than This
TTITLE3=Sawmill Road
TTITLE4=Calling All Hearts (Come Back Home)
TTITLE5=This Romeo Ain't Got Julie Yet
TTITLE6=I Was Meant to Be With You
TTITLE7=Old Weakness (Coming On Strong)
TTITLE8=Demons and Angels
TTITLE9=Nothing In This World
TTITLE10=Close To The Edge
EXTD=YEAR: 1992
EXTT0=
EXTT1=
EXTT2=
EXTT3=
EXTT4=
EXTT5=
EXTT6=
EXTT7=
EXTT8=
EXTT9=
EXTT10=
PLAYORDER=
